<svg xmlns="http://www.w3.org/2000/svg" xmlns:xlink="http://www.w3.org/1999/xlink" width="49.5" height="54" viewBox="0 0 49.5 54">
  <defs>
    <filter id="Icon_awesome-lock" x="0" y="0" width="49.5" height="54" filterUnits="userSpaceOnUse">
      <feOffset dy="3" input="SourceAlpha"/>
      <feGaussianBlur stdDeviation="3" result="blur"/>
      <feFlood flood-opacity="0.161"/>
      <feComposite operator="in" in2="blur"/>
      <feComposite in="SourceGraphic"/>
    </filter>
  </defs>
  <g transform="matrix(1, 0, 0, 1, 0, 0)" filter="url(#Icon_awesome-lock)">
    <path id="Icon_awesome-lock-2" data-name="Icon awesome-lock" d="M28.125,15.75H26.438V10.688a10.688,10.688,0,0,0-21.375,0V15.75H3.375A3.376,3.376,0,0,0,0,19.125v13.5A3.376,3.376,0,0,0,3.375,36h24.75A3.376,3.376,0,0,0,31.5,32.625v-13.5A3.376,3.376,0,0,0,28.125,15.75Zm-7.312,0H10.688V10.688a5.063,5.063,0,0,1,10.125,0Z" transform="translate(9 6)" fill="#0051a2"/>
  </g>
</svg>
